<svg id="Layer_1" data-name="Layer 1" xmlns="http://www.w3.org/2000/svg" viewBox="0 0 600 250"><defs><style>.cls-1{fill:#fff;}</style></defs><title>Deque_Logo_White</title><path class="cls-1" d="M436.67,128.7c0,8-.29,13.61-.87,16.68a23.29,23.29,0,0,1-2.53,7.28,21.19,21.19,0,0,1-8.25,8,25.68,25.68,0,0,1-12.26,2.78c-8.19,0-13.78-2.07-17.11-6.34-3.53-4.54-5.33-12.85-5.33-24.69V77.81h-20.8v53.73c0,18.29,3.27,31.19,10,39.44s17.9,12.65,32.85,12.65a44.91,44.91,0,0,0,18.17-3.38,33.08,33.08,0,0,0,6.12-3.53V181h20.8V77.81h-20.8Z"/><path class="cls-1" d="M223.29,146.74a31.57,31.57,0,0,1-10.51,11.59,30,30,0,0,1-16.79,4.8c-9,0-16.18-2.71-22.1-8.27a30.59,30.59,0,0,1-9.22-17.26h84.75v-5.28c0-16.7-4.92-30.52-14.62-41.07s-22.58-16.08-38-16.08c-15.65,0-28.72,5.17-38.85,15.38s-15.24,23.23-15.24,38.72a53.21,53.21,0,0,0,15.53,38.35,51.24,51.24,0,0,0,38.08,16,50.61,50.61,0,0,0,30-9.22c8.53-6.06,15.22-14.82,19.88-26l.69-1.65Zm-48.64-43.93c5.56-5,12.22-7.43,20.33-7.43,8.83,0,15.72,2.25,21.07,6.88,4.31,3.74,7.59,9.11,9.79,16H165.42A30.85,30.85,0,0,1,174.65,102.81Z"/><path class="cls-1" d="M544.87,146.74a31.66,31.66,0,0,1-10.51,11.59,30,30,0,0,1-16.79,4.8c-9,0-16.18-2.71-22.1-8.27a30.55,30.55,0,0,1-9.21-17.26H571v-5.28c0-16.7-4.92-30.52-14.61-41.07s-22.59-16.08-38-16.08c-15.65,0-28.72,5.17-38.85,15.38s-15.24,23.23-15.24,38.72a53.21,53.21,0,0,0,15.53,38.35,51.27,51.27,0,0,0,38.08,16,50.59,50.59,0,0,0,30-9.22c8.53-6.06,15.22-14.82,19.88-26l.69-1.65Zm-48.64-43.93c5.57-5,12.22-7.43,20.33-7.43,8.83,0,15.73,2.25,21.07,6.88,4.31,3.75,7.59,9.12,9.79,16H487A30.92,30.92,0,0,1,496.23,102.81Z"/><circle class="cls-1" cx="78.26" cy="130.2" r="19.36"/><path class="cls-1" d="M133.78,129.34V28.55H107.26V83.23A54.28,54.28,0,1,0,94,182.08c.17,0,.32-.09.48-.13V160.53a13.58,13.58,0,0,1-2.8,1.72A31.59,31.59,0,0,1,78.11,165a32.66,32.66,0,0,1-24.33-10,34.1,34.1,0,0,1-9.7-24.61c0-9.86,3.33-18.23,9.91-24.89s14.93-10,24.78-10c5,0,15.14,1.33,21.35,6.22,5.71,4.51,11.83,11.09,11.63,28.38-.06,5.12,0,28.08.12,43.39a21.23,21.23,0,0,0,2.6-2.13,54.1,54.1,0,0,0,19.28-40h0v-.92c0-.17,0-.33,0-.5S133.78,129.51,133.78,129.34Z"/><path class="cls-1" d="M362.14,218.52s0-3.4-.05-8.85l0-6.64v0c-.12-23.14-.32-64.92-.22-73.6.31-26.8-9.18-37-18-44-9.62-7.59-25.32-9.65-33.1-9.65-15.27,0-28.19,5.24-38.42,15.58s-15.38,23.29-15.38,38.58c0,15,5.07,27.88,15.05,38.17s22.72,15.55,37.72,15.55a48.89,48.89,0,0,0,21.11-4.24,23.37,23.37,0,0,0,9.06-7.43V221.1h22.31v-2.58Zm-52.62-55.61c-18.07,0-32.72-15-32.72-33.51s14.65-33.52,32.72-33.52,32.71,15,32.71,33.52S327.58,162.91,309.52,162.91Z" fill="currentColor"/></svg>
