<svg version="1.2" xmlns="http://www.w3.org/2000/svg" overflow="visible" preserveAspectRatio="none" width="24" height="24"><path d="M17.37 12c0 .18-.06.35-.19.47l-4.71 4.73c-.26.25-.68.25-.94 0l-4.71-4.72c-.25-.26-.25-.68 0-.94l.95-.95c.25-.26.66-.27.92-.02l.02.02 2 2V7.34c.01-.37.3-.66.67-.67h1.33c.37.01.66.3.67.67v5.23l2-2c.26-.25.68-.25.94 0l.95.95c.13.12.19.29.19.47l-.09.01zm1.55-4c-.7-1.21-1.71-2.22-2.92-2.92-1.21-.71-2.59-1.09-4-1.08-1.41-.01-2.79.37-4 1.08-1.21.7-2.22 1.71-2.92 2.92-.71 1.21-1.09 2.59-1.08 4-.01 1.41.36 2.79 1.07 4 .7 1.21 1.71 2.22 2.93 2.92 1.21.71 2.59 1.09 4 1.08 1.41.01 2.79-.36 4-1.07 1.21-.7 2.22-1.71 2.92-2.93.71-1.21 1.09-2.59 1.08-4 .01-1.41-.37-2.79-1.08-4z" fill="currentColor" vector-effect="non-scaling-stroke"/></svg>