<svg version="1.2" overflow="visible" preserveAspectRatio="none" viewBox="0 0 24 24" width="17" height="17" transform="rotate(180)"><path d="M17.33 12.67c-.01.37-.3.66-.67.67h-5.22l2 2c.25.26.25.68 0 .94l-.95.95c-.26.25-.68.25-.94 0L6.8 12.47a.683.683 0 010-.94l4.72-4.72c.26-.25.68-.25.94 0l.95.95c.26.25.27.66.02.92l-.02.02-2 2h5.23c.37.01.66.3.67.67v1.33l.02-.03zM18.92 8A8.016 8.016 0 0016 5.08 7.798 7.798 0 0012 4c-1.41-.01-2.79.37-4 1.08-1.21.7-2.22 1.71-2.92 2.92A7.798 7.798 0 004 12c-.01 1.41.36 2.79 1.07 4 .7 1.21 1.71 2.22 2.93 2.92 1.21.71 2.59 1.09 4 1.08 1.41.01 2.79-.36 4-1.07 1.21-.7 2.22-1.71 2.92-2.93A7.798 7.798 0 0020 12c.01-1.41-.37-2.79-1.08-4z" vector-effect="non-scaling-stroke" fill="currentColor"/></svg>