<svg width="24" height="24" viewBox="0 0 24 24" fill="currentColor">
<path d="M22.1538 0H1.84615C1.35652 0 0.886947 0.229869 0.540726 0.63904C0.194505 1.04821 0 1.60316 0 2.18182V21.8182C0 22.3968 0.194505 22.9518 0.540726 23.361C0.886947 23.7701 1.35652 24 1.84615 24H9.23077C9.42451 24 9.61335 23.928 9.77053 23.7941C9.92771 23.6602 10.0453 23.4713 10.1065 23.2541L11.8177 17.1886L16.0385 15.195C16.1544 15.1397 16.2597 15.0573 16.3481 14.9528C16.4365 14.8483 16.5062 14.7238 16.5531 14.5868L18.24 9.60273L23.3723 7.58045C23.5555 7.50734 23.7146 7.36812 23.8272 7.18242C23.9398 6.99672 24.0003 6.77392 24 6.54545V2.18182C24 1.60316 23.8055 1.04821 23.4593 0.63904C23.1131 0.229869 22.6435 0 22.1538 0ZM10.2012 16.0186L8.565 21.8182H1.84615V18L7.84615 10.9091L11.3562 15.0573L10.7308 15.3505C10.6068 15.4098 10.4952 15.5003 10.4038 15.6157C10.3123 15.7311 10.2432 15.8686 10.2012 16.0186ZM22.1538 5.75864L17.2465 7.69227C17.1192 7.7424 17.0027 7.82473 16.905 7.93354C16.8074 8.04234 16.731 8.175 16.6812 8.32227L14.9827 13.3432L13.2208 14.1818L9.15115 9.37227C8.80497 8.96341 8.33558 8.73374 7.84615 8.73374C7.35673 8.73374 6.88734 8.96341 6.54115 9.37227L1.84615 14.9141V2.18182H22.1538V5.75864ZM23.6169 10.2586C23.4982 10.1575 23.3609 10.0912 23.2163 10.0651C23.0716 10.039 22.9238 10.0539 22.785 10.1086L20.0388 11.1914C19.9116 11.2413 19.7952 11.3235 19.6975 11.432C19.5999 11.5406 19.5234 11.673 19.4735 11.82L17.8223 16.6977L13.695 18.6491C13.5706 18.7081 13.4586 18.7985 13.3667 18.9139C13.2749 19.0293 13.2054 19.1669 13.1631 19.3173L12.2469 22.5627C12.2004 22.7268 12.1876 22.9016 12.2096 23.0727C12.2315 23.2437 12.2876 23.4062 12.3732 23.5466C12.4587 23.687 12.5713 23.8013 12.7016 23.8802C12.832 23.959 12.9763 24.0001 13.1227 24H22.1538C22.6435 24 23.1131 23.7701 23.4593 23.361C23.8055 22.9518 24 22.3968 24 21.8182V11.145C24 10.9722 23.9653 10.8018 23.8987 10.6479C23.8321 10.4941 23.7355 10.3611 23.6169 10.26V10.2586ZM22.1538 21.8182H14.4035L14.7785 20.4886L18.8758 18.5523C18.9917 18.4969 19.097 18.4146 19.1854 18.3101C19.2738 18.2056 19.3436 18.0811 19.3904 17.9441L21.0288 13.1018L22.1538 12.6586V21.8182Z" fill="currentColor"/>
</svg>
