<svg version="1.2" xmlns="http://www.w3.org/2000/svg" overflow="visible" preserveAspectRatio="none" viewBox="0 0 24 24" width="25" height="25"><path d="M13.02 12a.35.35 0 0 0-.1-.24L8.09 6.91a.332.332 0 0 0-.47-.01l-.01.01-.52.52c-.14.13-.14.33-.02.47l.01.01 4.1 4.09-4.08 4.09c-.13.13-.14.33-.01.47l.01.01.52.52c.13.13.33.14.47.01l.01-.01 4.85-4.85c.05-.07.07-.15.07-.24zm4 0a.35.35 0 0 0-.1-.24l-4.83-4.85a.332.332 0 0 0-.47-.01l-.01.01-.52.52c-.13.13-.14.33-.01.47l.01.01 4.1 4.09-4.09 4.09c-.13.13-.14.33-.01.47l.01.01.52.52c.13.13.33.14.47.01l.01-.01 4.85-4.85c.05-.07.07-.15.07-.24z" vector-effect="non-scaling-stroke" fill="currentColor"/></svg>