<svg width="72" height="72" overflow="visible" preserveAspectRatio="none" version="1.2"><path d="M65.25 36c0 16.154-13.096 29.25-29.25 29.25S6.75 52.154 6.75 36 19.846 6.75 36 6.75 65.25 19.846 65.25 36zM0 36c0 19.882 16.118 36 36 36s36-16.118 36-36S55.882 0 36 0 0 16.118 0 36zm32.625-19.125V36a3.39 3.39 0 0 0 1.505 2.813l13.5 9a3.367 3.367 0 0 0 4.682-.943 3.364 3.364 0 0 0-.942-4.682L39.375 34.2V16.875A3.367 3.367 0 0 0 36 13.5a3.367 3.367 0 0 0-3.375 3.375z" fill="currentColor" vector-effect="non-scaling-stroke"/></svg>