<svg version="1.2" xmlns="http://www.w3.org/2000/svg" overflow="visible" preserveAspectRatio="none" viewBox="0 0 24 24" width="12" height="12"><path d="M8.43 16.59c.13-.13.14-.33.01-.47l-.01-.01-4.09-4.09 4.09-4.09c.13-.13.14-.33.01-.47l-.01-.01-.52-.52a.332.332 0 0 0-.47-.01l-.01.01-4.85 4.85c-.13.13-.14.33-.01.47l.01.01 4.85 4.85c.13.13.33.14.47.01l.01-.01.52-.52zm6.15-11.11c.04-.08.04-.18 0-.26a.353.353 0 0 0-.23-.2l-.65-.18a.331.331 0 0 0-.24 0c-.08.04-.13.12-.16.2L9.42 18.56c-.04.08-.04.18 0 .26.04.08.12.13.2.16l.65.18c.08.03.16.03.24 0 .08-.04.13-.12.16-.2l3.91-13.48zm6.84 6.78c.13-.13.14-.33.01-.47l-.01-.01-4.85-4.85a.332.332 0 0 0-.47-.01l-.01.01-.52.52c-.13.13-.14.33-.01.47l.01.01 4.09 4.09-4.09 4.09c-.13.13-.14.33-.01.47l.01.01.52.52c.13.13.33.14.47.01l.01-.01 4.85-4.85z" vector-effect="non-scaling-stroke" fill="currentColor"/></svg>