<svg version="1.2" overflow="visible" preserveAspectRatio="none" viewBox="0 0 24 24" width="13" height="13"><g><path id="exchange" d="M21.33,14.34c-0.01-0.18-0.15-0.32-0.33-0.33H6.67v-2c-0.01-0.18-0.15-0.32-0.33-0.33  c-0.09,0-0.18,0.03-0.24,0.09L2.77,15.1c-0.06,0.06-0.09,0.15-0.09,0.24c0,0.09,0.03,0.17,0.09,0.23l3.32,3.33  c0.07,0.06,0.16,0.1,0.25,0.1c0.18-0.01,0.32-0.15,0.33-0.33v-2H21c0.18-0.01,0.32-0.15,0.33-0.33V14.34L21.33,14.34z M21.33,8.68  c0-0.09-0.03-0.18-0.09-0.24l-3.33-3.32c-0.07-0.07-0.16-0.1-0.25-0.11C17.48,5,17.34,5.14,17.33,5.31c0,0.01,0,0.01,0,0.02v2H3  C2.82,7.34,2.67,7.49,2.67,7.67v2C2.67,9.85,2.82,10,3,10.01h14.33v2c0.01,0.18,0.15,0.32,0.33,0.33c0.09,0,0.18-0.03,0.24-0.09  l3.33-3.33c0.06-0.06,0.09-0.15,0.09-0.24l0,0H21.33z" style="currentColor" vector-effect="non-scaling-stroke"/></g></svg>