<svg version="1.2" overflow="visible" preserveAspectRatio="none" viewBox="0 0 24 24" width="24" height="24"><path d="M16.47,18.47c-0.26,0.25-0.67,0.24-0.92-0.02c-0.25-0.26-0.24-0.67,0.02-0.92  c0.26-0.25,0.67-0.24,0.92,0.02c0.12,0.12,0.18,0.28,0.18,0.45C16.67,18.18,16.59,18.35,16.47,18.47z M19.13,18.47  c-0.26,0.25-0.67,0.24-0.92-0.02c-0.25-0.26-0.24-0.67,0.02-0.92c0.26-0.25,0.67-0.24,0.92,0.02c0.12,0.12,0.18,0.28,0.18,0.45  C19.33,18.18,19.26,18.35,19.13,18.47L19.13,18.47z M20.67,15.67c0-0.55-0.45-1-1-1h-4.84l-1.42,1.42c-0.78,0.78-2.05,0.78-2.83,0  c0,0,0,0,0,0l-1.4-1.42H4.34c-0.55,0-1,0.45-1,1V19c0,0.55,0.45,1,1,1h15.32c0.55,0,1-0.45,1-1v-3.34l0,0L20.67,15.67z M16.67,9.34  h-2.67V4.67C13.99,4.3,13.69,4.01,13.32,4h-2.66C10.3,4.01,10,4.3,9.99,4.67v4.66H7.34C7.06,9.32,6.82,9.48,6.72,9.74  c-0.13,0.25-0.06,0.55,0.15,0.73l4.66,4.66c0.25,0.26,0.66,0.27,0.92,0.02c0.01-0.01,0.01-0.01,0.02-0.02l4.66-4.66  c0.21-0.18,0.28-0.48,0.15-0.73c-0.09-0.26-0.35-0.43-0.63-0.41L16.67,9.34z" fill="currentColor" vector-effect="non-scaling-stroke"/></svg>