<svg version="1.2" xmlns="http://www.w3.org/2000/svg" overflow="visible" preserveAspectRatio="none" viewBox="0 0 24 24" width="17" height="17"><path d="M17.33 13.67a.317.317 0 0 0-.3-.34h-.7c-.18-.01-.32.13-.33.31V17c0 .92-.75 1.67-1.67 1.67H5.67C4.75 18.67 4 17.92 4 17V8.34c0-.92.75-1.67 1.67-1.67H13c.18.01.32-.13.33-.31v-.69c.01-.18-.13-.32-.31-.33H5.67a2.9 2.9 0 0 0-2.12.88 2.9 2.9 0 0 0-.88 2.12V17c-.01.8.31 1.57.88 2.12a2.9 2.9 0 0 0 2.12.88h8.66c1.66 0 3-1.34 3-3v-3.33zm4-9a.683.683 0 0 0-.67-.67h-5.33c-.36 0-.66.29-.67.65 0 .18.07.35.2.48L16.7 7l-6.79 6.76c-.13.13-.14.33-.01.47l.01.01 1.19 1.19c.13.13.33.14.47.01l.01-.01 6.79-6.79 1.83 1.83c.27.25.69.24.95-.03.11-.12.18-.28.18-.44V4.67z" vector-effect="non-scaling-stroke" fill="currentColor"/></svg>