<svg id="Layer_1" data-name="Layer 1" xmlns="http://www.w3.org/2000/svg" viewBox="0 0 29.74 26.88"><defs><style>.cls-1{fill:#fff}.cls-2{fill:#d4dde0}</style></defs><path class="cls-1" d="M19.22 15.56a.38.38 0 0 0-.22-.16l-2.31-.35a6.79 6.79 0 0 0-.52-1.21l.68-.88c.3-.37.51-.65.64-.83a.51.51 0 0 0 .1-.29.41.41 0 0 0-.09-.28 17.53 17.53 0 0 0-2.08-2.14.48.48 0 0 0-.31-.12.41.41 0 0 0-.3.11L13 10.7a9.28 9.28 0 0 0-1.13-.47l-.35-2.31a.37.37 0 0 0-.15-.26.39.39 0 0 0-.3-.12h-2.8a.41.41 0 0 0-.45.35 18.64 18.64 0 0 0-.36 2.34 7.33 7.33 0 0 0-1.15.48L4.57 9.36a.58.58 0 0 0-.33-.12 3.06 3.06 0 0 0-1.24.89 14.32 14.32 0 0 0-1.21 1.36.53.53 0 0 0-.1.29.42.42 0 0 0 .12.3c.55.68 1 1.26 1.34 1.74A6.06 6.06 0 0 0 2.68 15l-2.34.35a.35.35 0 0 0-.24.17.46.46 0 0 0-.1.29v2.79a.51.51 0 0 0 .1.29.42.42 0 0 0 .26.16l2.31.33a5.66 5.66 0 0 0 .52 1.21c-.16.21-.37.5-.68.88s-.5.66-.64.84a.48.48 0 0 0-.09.29.49.49 0 0 0 .08.29A17.27 17.27 0 0 0 3.94 25a.41.41 0 0 0 .31.14.52.52 0 0 0 .32-.11l1.77-1.34a11.37 11.37 0 0 0 1.14.47l.35 2.32a.34.34 0 0 0 .15.26.44.44 0 0 0 .31.11h2.79a.43.43 0 0 0 .45-.35 18.64 18.64 0 0 0 .36-2.34A7.36 7.36 0 0 0 13 23.7l1.74 1.36a.52.52 0 0 0 .32.11 2.94 2.94 0 0 0 1.21-.9 11.9 11.9 0 0 0 1.21-1.35.46.46 0 0 0 .11-.29.53.53 0 0 0-.12-.32c-.61-.73-1.05-1.31-1.34-1.74a7.68 7.68 0 0 0 .49-1.14l2.38-.35a.43.43 0 0 0 .34-.45v-2.79a.43.43 0 0 0-.12-.28zm-7.28 3.91a3.22 3.22 0 0 1-4.54 0 3.23 3.23 0 0 1 0-4.54 3.22 3.22 0 0 1 4.55 0 3.56 3.56 0 0 1-.01 4.54z"/><path class="cls-2" d="M29.73 5.16a.28.28 0 0 0-.06-.16.27.27 0 0 0-.16-.1l-1.44-.21a3.85 3.85 0 0 0-.32-.75c.1-.13.23-.32.42-.55s.32-.41.4-.52a.28.28 0 0 0 .06-.18.26.26 0 0 0-.05-.17 11.58 11.58 0 0 0-1.29-1.33.35.35 0 0 0-.2-.07.27.27 0 0 0-.19.06L25.81 2a6.29 6.29 0 0 0-.71-.3L24.89.24a.22.22 0 0 0-.09-.16.25.25 0 0 0-.19-.08h-1.74a.26.26 0 0 0-.28.22 12.1 12.1 0 0 0-.22 1.45 5.74 5.74 0 0 0-.72.3l-1.08-.84a.35.35 0 0 0-.2-.07 2 2 0 0 0-.75.55 8.49 8.49 0 0 0-.75.84.4.4 0 0 0-.07.18.27.27 0 0 0 .08.19c.34.42.62.78.83 1.08a4.09 4.09 0 0 0-.31.75l-1.4.22a.23.23 0 0 0-.15.1.3.3 0 0 0-.06.18v1.74a.32.32 0 0 0 .06.18.22.22 0 0 0 .16.09l1.44.21a3.32 3.32 0 0 0 .32.75l-.42.55c-.19.23-.32.41-.4.52a.28.28 0 0 0-.06.18.35.35 0 0 0 .05.18 11.4 11.4 0 0 0 1.29 1.31.3.3 0 0 0 .2.08.31.31 0 0 0 .19-.06l1.06-.88a5.46 5.46 0 0 0 .7.3l.22 1.44a.26.26 0 0 0 .09.16.28.28 0 0 0 .19.07h1.74a.25.25 0 0 0 .27-.22 12.13 12.13 0 0 0 .23-1.45 5 5 0 0 0 .71-.3l1.08.84a.36.36 0 0 0 .2.06 1.73 1.73 0 0 0 .75-.55 7.49 7.49 0 0 0 .75-.84.24.24 0 0 0 .07-.18.35.35 0 0 0-.07-.2 12.91 12.91 0 0 1-.84-1.08 4.49 4.49 0 0 0 .31-.71l1.45-.22a.25.25 0 0 0 .16-.1.34.34 0 0 0 0-.17v-1.7zm-4.58 2.25a2 2 0 0 1-2.82 0 2 2 0 0 1 0-2.82 2 2 0 0 1 2.82 0 2.23 2.23 0 0 1 0 2.82z"/></svg>