<svg version="1.2" xmlns="http://www.w3.org/2000/svg" overflow="visible" preserveAspectRatio="none" viewBox="0 0 24 24" width="12" height="12"><path d="M17.5 14.35c-.6 1.45-1.75 2.6-3.2 3.2-1.49.63-3.16.63-4.65 0-1.45-.6-2.6-1.75-3.2-3.2a5.956 5.956 0 0 1 0-4.65c.6-1.45 1.75-2.6 3.2-3.2 1.49-.63 3.16-.63 4.65 0 1.45.6 2.6 1.75 3.2 3.2.63 1.49.63 3.16 0 4.65zm3.35.56c.05-.09.05-.21 0-.3l-1.87-2.58 1.87-2.58c.05-.09.05-.21 0-.3a.316.316 0 0 0-.21-.21l-3-1V4.75c0-.11-.05-.21-.14-.27a.319.319 0 0 0-.3 0l-3 1-1.95-2.65a.363.363 0 0 0-.51-.03l-.03.03-1.87 2.58-3-1a.319.319 0 0 0-.3 0c-.09.06-.14.16-.14.27v3.25l-3 1c-.1.03-.18.11-.21.21-.05.09-.05.21 0 .3l1.79 2.59-1.83 2.58c-.05.09-.05.21 0 .3.03.1.11.18.21.21l3 1v3.19c0 .11.05.21.14.27.09.05.21.05.3 0l3-1 1.87 2.58c.11.15.33.18.48.06.02-.02.05-.04.06-.06l1.87-2.58 3 1c.09.05.21.05.3 0 .09-.06.14-.16.14-.27v-3.19l3-1c.1-.03.18-.11.21-.21h.12z" vector-effect="non-scaling-stroke" fill="currentColor"/></svg>