<svg preserveAspectRatio="none" viewBox="0 0 24 24" width="24" height="24"><path d="m9.71.02c.93.16,1.56,1.04,1.41,1.97l-.52,3.15h5.09l.62-3.71c.16-.93,1.04-1.56,1.97-1.41s1.56,1.04,1.41,1.97l-.52,3.15h3.12c.95,0,1.71.77,1.71,1.71s-.77,1.71-1.71,1.71h-3.69l-1.14,6.85h3.12c.95,0,1.71.77,1.71,1.71s-.77,1.71-1.71,1.71h-3.69l-.62,3.71c-.16.93-1.04,1.56-1.97,1.41s-1.56-1.04-1.41-1.97l.52-3.14h-5.1l-.62,3.71c-.16.93-1.04,1.56-1.97,1.41s-1.56-1.04-1.41-1.97l.52-3.15H1.72C.77,18.85,0,18.09,0,17.14s.77-1.71,1.71-1.71h3.69l1.14-6.85h-3.12c-.95,0-1.71-.77-1.71-1.71s.77-1.71,1.71-1.71h3.69l.62-3.71c.16-.93,1.04-1.56,1.97-1.41h0Zm.31,8.55l-1.14,6.85h5.09l1.14-6.85h-5.09Z" fill="currentColor" vector-effect="non-scaling-stroke"/></svg>