<svg version="1.2" overflow="visible" preserveAspectRatio="none" viewBox="0 0 24 24" width="19" height="19"><path d="M15.3,15.3c-0.56,0.56-1.24,0.96-2,1.17v-1.14c-0.01-0.37-0.3-0.66-0.67-0.67h-1.3  c-0.37,0.01-0.66,0.3-0.67,0.67v1.13c-1.5-0.45-2.68-1.63-3.13-3.13h1.14c0.37-0.01,0.66-0.3,0.67-0.67v-1.33  c-0.01-0.37-0.3-0.66-0.67-0.67H7.53c0.45-1.5,1.63-2.68,3.13-3.13v1.14c0.01,0.37,0.3,0.66,0.67,0.67h1.33  c0.37-0.01,0.66-0.3,0.67-0.67V7.53c1.5,0.45,2.68,1.63,3.13,3.13h-1.13c-0.37,0.01-0.66,0.3-0.67,0.67v1.33  c0.01,0.37,0.3,0.66,0.67,0.67h1.13C16.25,14.07,15.85,14.75,15.3,15.3z M20,11.3c-0.01-0.37-0.3-0.66-0.67-0.67h-1.49  c-0.51-2.24-2.27-4-4.51-4.51V4.66c-0.01-0.36-0.3-0.66-0.66-0.67h-1.34C10.96,4,10.67,4.3,10.66,4.66v1.49  c-2.24,0.51-4,2.27-4.51,4.51H4.67C4.3,10.67,4.01,10.97,4,11.34v1.33c0.01,0.37,0.3,0.66,0.67,0.67h1.49  c0.51,2.24,2.27,4,4.51,4.51v1.49c0.01,0.37,0.3,0.66,0.67,0.67h1.33c0.37-0.01,0.66-0.3,0.67-0.67v-1.5c2.24-0.51,4-2.27,4.51-4.51  h1.49c0.36-0.01,0.65-0.3,0.66-0.66v-1.34l0,0V11.3z" fill="currentColor" vector-effect="non-scaling-stroke"/></svg>