<svg version="1.2" xmlns="http://www.w3.org/2000/svg" overflow="visible" preserveAspectRatio="none" viewBox="0 0 24 24" width="25" height="25"><path d="M13.71 15.62a.99.99 0 0 0-.71-.29h-2c-.55 0-1 .45-1 1v2c0 .55.45 1 1 1h2c.55 0 1-.45 1-1v-2c0-.27-.1-.52-.29-.71zm0-5.33A.99.99 0 0 0 13 10h-2c-.55 0-1 .45-1 1v2c0 .55.45 1 1 1h2c.55 0 1-.45 1-1v-2c0-.27-.1-.52-.29-.71zm0-5.33a.99.99 0 0 0-.71-.29h-2c-.55 0-1 .45-1 1v2c0 .55.45 1 1 1h2c.55 0 1-.45 1-1v-2c-.01-.25-.11-.49-.29-.67v-.04z" vector-effect="non-scaling-stroke" fill="currentColor"/></svg>
