<svg version="1.2" overflow="visible" preserveAspectRatio="none" viewBox="0 0 24 24" width="24" height="24"><path d="M13.07,14.93c-0.06-0.06-0.15-0.09-0.24-0.09h-1.66c-0.18-0.01-0.32,0.13-0.33,0.31  c0,0.01,0,0.01,0,0.02v1.67c-0.01,0.18,0.13,0.32,0.31,0.33c0.01,0,0.01,0,0.02,0h1.67c0.18,0.01,0.32-0.13,0.33-0.31  c0-0.01,0-0.01,0-0.02v-1.67C13.17,15.08,13.14,14.99,13.07,14.93z M15.83,10c-0.01-0.88-0.43-1.71-1.14-2.23  C14,7.18,13.12,6.85,12.21,6.84c-1.48-0.05-2.88,0.72-3.63,2C8.53,8.91,8.51,9,8.53,9.08c0.01,0.08,0.05,0.16,0.12,0.21l1.12,0.85  c0.06,0.04,0.13,0.06,0.2,0.06c0.1,0,0.2-0.04,0.26-0.12c0.24-0.32,0.52-0.61,0.83-0.86c0.3-0.2,0.65-0.29,1-0.28  c0.36,0,0.71,0.11,1,0.31c0.27,0.15,0.44,0.43,0.45,0.74c0.01,0.2-0.08,0.39-0.23,0.51c-0.24,0.18-0.5,0.33-0.78,0.45L12,11.16  c-0.15,0.08-0.29,0.17-0.43,0.27c-0.16,0.1-0.29,0.23-0.41,0.37c-0.11,0.15-0.19,0.32-0.25,0.49c-0.07,0.22-0.11,0.44-0.11,0.67  v0.71c-0.01,0.18,0.13,0.32,0.31,0.33c0.01,0,0.01,0,0.02,0h1.67c0.18,0.01,0.32-0.13,0.33-0.31c0-0.01,0-0.01,0-0.02v-0.34  c0-0.11,0.05-0.22,0.12-0.3c0.08-0.1,0.17-0.18,0.27-0.25L14,12.49c0.27-0.15,0.47-0.27,0.62-0.37c0.19-0.14,0.37-0.29,0.54-0.46  c0.21-0.2,0.37-0.45,0.47-0.72C15.75,10.64,15.82,10.32,15.83,10L15.83,10z M14.59,5.87c1.61,0.67,2.88,1.94,3.55,3.55  c0.71,1.65,0.71,3.52,0,5.17c-0.67,1.61-1.94,2.88-3.55,3.55c-1.65,0.71-3.52,0.71-5.17,0c-1.61-0.67-2.88-1.94-3.55-3.55  c-0.71-1.65-0.71-3.52,0-5.17c0.66-1.6,1.94-2.88,3.54-3.55C11.06,5.16,12.94,5.16,14.59,5.87z M18.92,8  c-0.7-1.21-1.71-2.22-2.92-2.92C14.79,4.37,13.41,3.99,12,4c-1.41-0.01-2.79,0.37-4,1.08C6.79,5.78,5.78,6.79,5.08,8  C4.37,9.21,3.99,10.59,4,12c-0.01,1.41,0.36,2.79,1.07,4c0.7,1.21,1.71,2.22,2.93,2.92c1.21,0.71,2.59,1.09,4,1.08  c1.41,0.01,2.79-0.36,4-1.07c1.21-0.7,2.22-1.71,2.92-2.93c0.71-1.21,1.09-2.59,1.08-4C20.01,10.59,19.63,9.21,18.92,8z" fill="currentColor" vector-effect="non-scaling-stroke"/></svg>