<svg version="1.2" overflow="visible" preserveAspectRatio="none" viewBox="0 0 24 24" width="19" height="19"><path d="M5.19 10.13a.649.649 0 0 1-.02-.92c.01 0 .01-.01.02-.02l4.13-4.14v-.72a.616.616 0 0 0-.41-.61.612.612 0 0 0-.73.15L2.86 9.19c-.26.25-.27.66-.02.92l.02.02 5.33 5.33c.12.13.29.2.47.2.09 0 .18-.02.26-.05.26-.1.42-.35.4-.62v-.72l-4.13-4.14zm16.13 4.53c.14-1.93-.49-3.84-1.76-5.3-1.33-1.33-3.41-2.1-6.24-2.3V4.33a.616.616 0 0 0-.41-.61.598.598 0 0 0-.73.15L6.86 9.19c-.26.25-.27.66-.02.92l.02.02 5.33 5.33c.12.13.29.2.47.2.09 0 .18-.02.26-.05.26-.1.42-.35.4-.62v-2.61c.95.06 1.89.24 2.79.55.68.23 1.29.63 1.78 1.15 1.03 1.15 1.39 3.12 1.1 5.91-.02.16.08.31.24.35h.09c.12.01.24-.07.29-.18l.21-.42c.1-.19.24-.51.42-.94.18-.43.35-.87.5-1.3.16-.47.29-.95.4-1.44.11-.45.17-.92.18-1.4z" fill="currentColor" vector-effect="non-scaling-stroke"/></svg>
