<svg viewBox="0 0 29 29" width="29" height="29"><circle cx="14.5" cy="14.5" r="13.5" fill="currentColor" /><path d="M6.23,12.58h.92v5.51H6.23a.91.91,0,0,1-.92-.91h0V13.5a.92.92,0,0,1,.92-.92Zm14.7-1.38V19a1.84,1.84,0,0,1-1.84,1.84H9.91A1.84,1.84,0,0,1,8.07,19V11.2a2.29,2.29,0,0,1,2.29-2.29h3.22V7.07a.92.92,0,0,1,1.84,0V8.91h3.22a2.29,2.29,0,0,1,2.29,2.29Zm-8,2.3a1.15,1.15,0,1,0-1.15,1.15,1.15,1.15,0,0,0,1.15-1.15Zm-.23,3.68H10.82v.91h1.84Zm2.76,0H13.58v.91h1.84Zm3-3.68a1.15,1.15,0,1,0-1.15,1.15,1.16,1.16,0,0,0,1.15-1.15Zm-.23,3.68H16.34v.91h1.84Zm5.51-3.68v3.68a.92.92,0,0,1-.92.91h-.92V12.58h.92a.92.92,0,0,1,.92.92Z" fill="currentColor" /></svg>