<svg version="1.2" xmlns="http://www.w3.org/2000/svg" overflow="visible" preserveAspectRatio="none" viewBox="0 0 24 24" width="21" height="21"><path d="M21.33 9.66c0-.18-.07-.35-.2-.47L15.8 3.86a.677.677 0 00-.95.03c-.11.12-.18.28-.18.44v2.66h-2.34c-4.95 0-7.98 1.4-9.11 4.2-.4 1.11-.58 2.29-.55 3.47.13 1.64.59 3.23 1.33 4.69l.1.25.14.31c.04.08.08.16.14.23.06.1.17.17.29.18.09 0 .18-.03.24-.1.06-.06.09-.14.09-.23.01-.09.01-.19 0-.28v-.24c-.07-.49-.1-.93-.1-1.32a8.5 8.5 0 01.18-1.88c.1-.5.27-.98.5-1.44.21-.4.49-.75.83-1.05.33-.29.7-.53 1.1-.72.44-.2.9-.35 1.38-.44.53-.11 1.06-.18 1.6-.22.54-.04 1.15-.06 1.83-.06h2.33v2.65c0 .36.29.66.65.67.18 0 .35-.07.48-.2l5.33-5.33c.13-.12.2-.29.2-.47h.02z" vector-effect="non-scaling-stroke" fill="currentColor"/></svg>
