<svg version="1.2" xmlns="http://www.w3.org/2000/svg" xmlns:xlink="http://www.w3.org/1999/xlink" overflow="visible" preserveAspectRatio="none" viewBox="0 0 24 24" width="21" height="21.000000000000004"><g><path xmlns:default="http://www.w3.org/2000/svg" id="share" d="M21.33,9.66c0-0.18-0.07-0.35-0.2-0.47L15.8,3.86c-0.27-0.25-0.69-0.24-0.95,0.03  c-0.11,0.12-0.18,0.28-0.18,0.44v2.66h-2.34c-4.95,0-7.98,1.4-9.11,4.2c-0.4,1.11-0.58,2.29-0.55,3.47C2.8,16.3,3.26,17.89,4,19.35  l0.1,0.25l0.14,0.31c0.04,0.08,0.08,0.16,0.14,0.23c0.06,0.1,0.17,0.17,0.29,0.18c0.09,0,0.18-0.03,0.24-0.1  C4.97,20.16,5,20.08,5,19.99c0.01-0.09,0.01-0.19,0-0.28c0-0.08,0-0.16,0-0.24c-0.07-0.49-0.1-0.93-0.1-1.32  c-0.01-0.63,0.05-1.26,0.18-1.88c0.1-0.5,0.27-0.98,0.5-1.44c0.21-0.4,0.49-0.75,0.83-1.05c0.33-0.29,0.7-0.53,1.1-0.72  c0.44-0.2,0.9-0.35,1.38-0.44c0.53-0.11,1.06-0.18,1.6-0.22c0.54-0.04,1.15-0.06,1.83-0.06h2.33v2.65c0,0.36,0.29,0.66,0.65,0.67  c0.18,0,0.35-0.07,0.48-0.2l5.33-5.33c0.13-0.12,0.2-0.29,0.2-0.47l0,0H21.33z" style="fill: rgb(255, 255, 255);" vector-effect="non-scaling-stroke"/></g></svg>