<svg id="Layer_1" data-name="Layer 1" xmlns="http://www.w3.org/2000/svg" viewBox="0 0 239.97 239.95"><defs><style>.cls-1{fill:#fff}</style></defs><path class="cls-1" d="M0 119.77A119.89 119.89 0 0 1 120.26 0C187.31.16 240.15 54.93 240 120.1a120 120 0 1 1-240-.33zm20 .14c.42 55.4 44.42 100 100.08 100a99.92 99.92 0 0 0-.14-199.84c-55.4.03-99.51 44.42-99.94 99.84z"/><path class="cls-1" d="M119.89 200c-43.65.46-79.94-36.33-80-79.94s36.62-80.2 80.2-80.12c43.79.09 80.17 36.71 80 80.32-.22 43.82-36.65 80.22-80.2 79.74zm-1.26-20c32.82 1.19 60.48-25.85 61.42-58.46.95-32.87-26.24-60.74-58.33-61.63C88.8 59 60.74 86 59.89 118.29 59 151.15 86 179.77 118.63 180z"/><path class="cls-1" d="M119.88 80A40 40 0 1 1 80 120a40 40 0 0 1 39.88-40z"/></svg>