<svg overflow="visible" preserveAspectRatio="none" viewBox="0 0 24 24" width="24" height="24"><path d="m21.53,7.11c.02.21.02.43.02.64,0,6.5-4.95,13.99-13.99,13.99-2.79,0-5.38-.81-7.55-2.21.4.05.78.06,1.19.06,2.3,0,4.42-.78,6.11-2.1-2.16-.05-3.97-1.46-4.6-3.41.3.05.61.08.93.08.44,0,.88-.06,1.29-.17-2.25-.46-3.94-2.44-3.94-4.83v-.06c.65.37,1.42.59,2.22.62-1.32-.88-2.19-2.39-2.19-4.1,0-.91.24-1.75.67-2.48,2.42,2.98,6.06,4.93,10.14,5.15-.08-.37-.12-.75-.12-1.13,0-2.71,2.19-4.92,4.92-4.92,1.42,0,2.7.59,3.59,1.55,1.11-.21,2.18-.62,3.12-1.19-.37,1.14-1.14,2.1-2.16,2.71.99-.11,1.95-.38,2.83-.76-.67.97-1.51,1.84-2.47,2.54h0Z" fill="currentColor" vector-effect="non-scaling-stroke"/></svg>