<?xml version="1.0" encoding="utf-8"?>
<!-- Generator: Adobe Illustrator 22.1.0, SVG Export Plug-In . SVG Version: 6.00 Build 0)  -->
<svg version="1.1" id="Layer_1" xmlns="http://www.w3.org/2000/svg" xmlns:xlink="http://www.w3.org/1999/xlink" x="0px" y="0px"
	 viewBox="0 0 800 800" style="enable-background:new 0 0 800 800;" xml:space="preserve">
<style type="text/css">
	.st0{display:none;fill:#CCCCCC;}
	.st1{display:none;}
	.st2{display:inline;fill:#0077C8;}
	.st3{display:none;fill:none;stroke:#CCCCCC;stroke-width:39;stroke-miterlimit:10;}
	.st4{display:none;fill:none;stroke:#BA0062;stroke-width:38;stroke-miterlimit:10;}
	.st5{display:none;fill:#BA0062;}
	.st6{display:inline;}
	.st7{fill:#0077C8;}
	.st8{display:none;fill:#0077C8;}
	.st9{fill:#CCCCCC;}
	.st10{fill:#FFFFFF;}
</style>
<path class="st0" d="M366.1,140.8c-29.7,0-53.8,24.1-53.8,53.8s24.1,53.8,53.8,53.8c29.7,0,53.8-24.1,53.8-53.8
	S395.8,140.8,366.1,140.8z M366.1,220.4c-14.2,0-25.8-11.5-25.8-25.8c0-14.2,11.5-25.8,25.8-25.8c14.2,0,25.8,11.5,25.8,25.8
	C391.9,208.8,380.4,220.4,366.1,220.4z"/>
<g class="st1">
	<path class="st2" d="M337.5,172.1c-29.7,0-53.8,24.1-53.8,53.8s24.1,53.8,53.8,53.8c29.7,0,53.8-24.1,53.8-53.8
		S367.2,172.1,337.5,172.1z M337.5,251.7c-14.2,0-25.8-11.5-25.8-25.8c0-14.2,11.5-25.8,25.8-25.8c14.2,0,25.8,11.5,25.8,25.8
		S351.8,251.7,337.5,251.7z"/>
	<path class="st2" d="M439.8,128.3c-22.8,0-41.2,18.4-41.2,41.2s18.4,41.2,41.2,41.2c22.8,0,41.2-18.4,41.2-41.2
		S462.5,128.3,439.8,128.3z M439.8,189.2c-10.9,0-19.8-8.8-19.8-19.8c0-10.9,8.8-19.7,19.8-19.7c10.9,0,19.8,8.8,19.8,19.7
		C459.5,180.4,450.7,189.2,439.8,189.2z"/>
	<path class="st2" d="M356.1,87.4c-16.6,0-30,13.4-30,30s13.4,30,30,30s30-13.4,30-30S372.6,87.4,356.1,87.4z M356.1,131.7
		c-7.9,0-14.4-6.4-14.4-14.4c0-7.9,6.4-14.4,14.4-14.4c7.9,0,14.4,6.4,14.4,14.4C370.4,125.3,364,131.7,356.1,131.7z"/>
</g>
<path class="st0" d="M536,166.7l-28.3,39l76.4,235.1l-200,145.3l-200-145.3l76.4-235.1l-28.3-39l-93.9,289l245.9,178.6L630,455.7
	L536,166.7z"/>
<path class="st0" d="M384.1,634.3L138.2,455.7l93.9-289H536l93.9,289L384.1,634.3z M184.1,440.8l200,145.3l200-145.3l-76.4-235.1
	H260.5L184.1,440.8z"/>
<polygon class="st3" points="384.1,610.2 161.2,448.2 246.3,186.2 521.9,186.2 607,448.2 "/>
<polygon class="st4" points="384.1,609.1 161.2,447.1 246.3,185.1 521.9,185.1 607,447.1 "/>
<path class="st5" d="M384.1,633L138.8,454.8l93.7-288.3h303.1l93.7,288.3L384.1,633z M183.5,440.3L384.1,586l200.6-145.7
	l-76.6-235.8h-248L183.5,440.3z"/>
<g class="st1">
	<g class="st6">
		<path class="st7" d="M373.1,397.2c-6.5,25.7-29.5,45.8-59.5,45.8c-36.7,0-62-28.5-62-61.6c0-34.2,26.4-61.4,61-61.4
			c29.1,0,53.8,18.4,60.5,46.6h-28.3c-4.9-12.2-16-20.9-31.2-20.9c-10.1-0.2-17.9,3.4-24.7,9.9c-5.9,6.3-9.5,15.6-9.5,25.7
			c0,20.9,14.6,35.6,34.2,35.6c17.3,0,27-10.3,31.2-19.8L373.1,397.2L373.1,397.2z"/>
	</g>
	<g class="st6">
		<path class="st7" d="M387.6,381.1c0-29.5,21.7-61,62-61s62,31.4,62,61.2c0,30-21.7,61.4-62,61.4s-62-31.4-62-61.4V381.1z
			 M415.3,381.6c0,20.2,15.4,35.2,34.4,35.2s34.2-15,34.2-35.4S468.7,346,449.7,346s-34.4,15-34.4,35.4L415.3,381.6L415.3,381.6z"/>
	</g>
</g>
<polygon class="st8" points="608.4,241.5 658.9,221.4 536,166.7 536,166.7 536,166.7 536,166.7 536,166.7 507.7,205.7 584.1,440.8 
	384.1,586.1 184.1,440.8 260.5,205.7 232.2,166.7 232.1,166.7 232.1,166.7 109.3,221.4 159.8,241.5 215.9,216.6 138.2,455.7 
	384.1,634.3 629.9,455.7 552.3,216.6 "/>
<g class="st1">
	<g class="st6">
		
			<rect x="111.4" y="192.3" transform="matrix(0.9136 -0.4067 0.4067 0.9136 -70.6976 90.9638)" class="st9" width="134.5" height="39"/>
	</g>
	<g class="st6">
		<polygon class="st9" points="608.4,241.5 520.2,202.3 536,166.7 658.9,221.4 		"/>
		<polygon class="st9" points="159.8,241.5 248,202.3 232.1,166.7 109.3,221.4 		"/>
	</g>
</g>
<path class="st8" d="M716,240.1c-0.2-7.4-1.9-14.9-5.2-22c-12.9-26.8-45.2-38.1-72-25.2c-6.4,3.1-11.9,7.2-16.4,12.2L536,166.7l0,0
	l0,0l0,0l0,0l-28.3,39l76.4,235.1l-200,145.3l-200-145.3l76.4-235.1l-28.3-39l0,0l0,0l-122.9,54.7l0,0l0,0l0,0l15.9,35.6l34.7-15.4
	l0,0l56.1-25l-77.7,239.1l245.9,178.6L630,455.7l-77.7-239.1l56.1,25c0,0.5,0,1,0,1.5c0,0.3,0,0.5,0,0.8s0,0.6,0,0.9
	c0,0.3,0,0.6,0,0.9c0,0.5,0.1,1,0.1,1.5c0.1,0.6,0.1,1.2,0.2,1.8c0.3,2.5,0.9,4.9,1.5,7.3l0,0c3.5,12.5,11.5,23.2,22,30.2l0.1-0.1
	c8.8,5.8,19.1,9,29.7,9c7.8,0,15.8-1.7,23.3-5.3c18.7-9,29.9-27.5,30.5-46.9c0-0.5,0-1.1,0-1.6C716,241.1,716,240.6,716,240.1z
	 M673.4,264.8c-12.8,6.2-28.2,0.8-34.4-12.1c-3.8-7.8-3.2-16.5,0.6-23.6c2.5-4.5,6.4-8.4,11.5-10.8c0.1-0.1,0.3-0.1,0.4-0.2
	c3.5-1.6,7.1-2.3,10.7-2.3c9.6,0,18.8,5.4,23.3,14.6C691.6,243.2,686.2,258.5,673.4,264.8z"/>
<g>
	<g>
		<path class="st10" d="M360.6,188.1c-26.1,0-47.2,21.1-47.2,47.2s21.2,47.2,47.2,47.2c26.1,0,47.2-21.1,47.2-47.2
			C407.9,209.3,386.7,188.1,360.6,188.1z M360.6,258c-12.5,0-22.7-10.1-22.7-22.7c0-12.5,10.1-22.6,22.7-22.6
			c12.5,0,22.7,10.1,22.7,22.6C383.3,247.9,373.2,258,360.6,258z"/>
		<path class="st10" d="M450.5,149.6c-20,0-36.2,16.2-36.2,36.2s16.2,36.2,36.2,36.2s36.2-16.2,36.2-36.2
			C486.6,165.8,470.4,149.6,450.5,149.6z M450.5,203.1c-9.6,0-17.4-7.8-17.4-17.4c0-9.6,7.8-17.3,17.4-17.3s17.4,7.8,17.4,17.3
			C467.8,195.4,460,203.1,450.5,203.1z"/>
		<path class="st10" d="M376.9,110.7c-14.6,0-26.3,11.8-26.3,26.3c0,14.6,11.8,26.3,26.3,26.3s26.3-11.8,26.3-26.3
			C403.3,122.4,391.5,110.7,376.9,110.7z M376.9,149.6c-7,0-12.6-5.7-12.6-12.6c0-7,5.7-12.6,12.6-12.6s12.6,5.7,12.6,12.6
			C389.6,144,383.9,149.6,376.9,149.6z"/>
	</g>
	<g>
		<g>
			<g>
				<path class="st10" d="M530.8,456h-27.6v-16.7c-7.4,13.5-22.8,20.2-39,20.2c-37.1,0-58.9-28.9-58.9-61.6
					c0-36.5,26.4-61.4,58.9-61.4c21.1,0,34,11.2,39,20.5v-16.9h27.6V456z M432.9,398.7c0,14.3,10.3,35.2,35.2,35.2
					c15.4,0,25.5-8,30.8-18.6c2.7-5.1,4-10.5,4.4-16.2c0.2-5.5-0.8-11.2-3.2-16.2c-4.9-11-15.6-20.5-32.3-20.5
					c-22.4,0-35,18.1-35,36.1L432.9,398.7L432.9,398.7z"/>
			</g>
		</g>
		<g>
			<g>
				<path class="st10" d="M390.8,413.8c-6.5,25.7-29.5,45.8-59.5,45.8c-36.7,0-62-28.5-62-61.6c0-34.2,26.4-61.4,61-61.4
					c29.1,0,53.8,18.4,60.5,46.6h-28.3c-4.9-12.2-16-20.9-31.2-20.9c-10.1-0.2-17.9,3.4-24.7,9.9c-5.9,6.3-9.5,15.6-9.5,25.7
					c0,20.9,14.6,35.6,34.2,35.6c17.3,0,27-10.3,31.2-19.8L390.8,413.8L390.8,413.8z"/>
			</g>
		</g>
	</g>
	<path class="st10" d="M530.8,209.1v48.2c37.7,35.1,61.3,85.1,61.3,140.7c0,106.1-86,192-192.1,192s-192.1-86-192.1-192
		c0-55.6,23.6-105.6,61.3-140.7v-48.2c-59.8,41.5-98.9,110.6-98.9,188.9c0,126.9,102.8,229.7,229.7,229.7S629.7,524.9,629.7,398
		C629.7,319.7,590.6,250.6,530.8,209.1z"/>
</g>
<path class="st8" d="M478.8,172.9v42.4c57.2,33.3,95.6,95.2,95.6,166.1c0,106.1-86,192-192.1,192s-192.1-86-192.1-192
	c0-69.5,36.9-130.4,92.2-164.1v-42.8c-76.9,37.2-129.9,115.8-129.9,206.9c0,126.9,102.8,229.7,229.7,229.7s229.7-102.8,229.7-229.7
	C612.1,289,557.5,209.3,478.8,172.9z"/>
<path id="center" class="st0" d="M382.3,151.7c-126.9,0-229.7,102.8-229.7,229.7s102.8,229.7,229.7,229.7S612,508.3,612,381.4
	S509.2,151.7,382.3,151.7z M382.3,573.5c-106.1,0-192.1-86-192.1-192s86-192.1,192.1-192.1s192.1,86,192.1,192.1
	S488.4,573.5,382.3,573.5z"/>
</svg>
